# xmcd
#
# Track frame offsets:
#	150
#	25112
#	49635
#	75435
#	103317
#	128790
#	155657
#	181837
#	208352
#	231135
#	255182
#	281035
#
# Disc length: 4096 seconds
#
# Revision: 1
# Processed by: cddbd v1.5.2PL0 Copyright (c) Steve Scherf et al.
# Submitted via: EZCDAudioConverter 8.0.2.1
#
DISCID=9d0ffe0c
DTITLE=Khánh Ly - Vũng Lầy Của Chúng Ta
DYEAR=1992
DGENRE=
TTITLE0=Hãy ngòi xuống đây
TTITLE1=Vũng Lầy Của Chúng Ta
TTITLE2=Một ngày vui mùa đông
TTITLE3=Dạ khúc cho tình nhân
TTITLE4=Uống nước bên bờ suối
TTITLE5=Đá xanh
TTITLE6=Còn nắng trên đồi
TTITLE7=Tình khúc cho em
TTITLE8=Đêm chợ phiên mùa đông
TTITLE9=ời gọi chân mây
TTITLE10=Ngồi lại trên đồi
TTITLE11=Yêu nhau trong phận người
EXTD=
EXTT0=
EXTT1=
EXTT2=
EXTT3=
EXTT4=
EXTT5=
EXTT6=
EXTT7=
EXTT8=
EXTT9=
EXTT10=
EXTT11=
PLAYORDER=
